<?xml version="1.0" standalone="no"?>
<!DOCTYPE svg PUBLIC "-//W3C//DTD SVG 20010904//EN"
 "http://www.w3.org/TR/2001/REC-SVG-20010904/DTD/svg10.dtd">
<svg version="1.0" xmlns="http://www.w3.org/2000/svg"
 width="300.000000pt" height="125.000000pt" viewBox="0 0 300.000000 125.000000"
 preserveAspectRatio="xMidYMid meet">
<metadata>
Created by potrace 1.10, written by Peter Selinger 2001-2011
</metadata>
<g transform="translate(0.000000,125.000000) scale(0.100000,-0.100000)"
fill="#000000" stroke="none">
<path d="M1426 1015 c-73 -19 -199 -81 -281 -139 -84 -61 -204 -190 -238 -259
-30 -58 -31 -69 -14 -194 5 -30 2 -47 -9 -57 -16 -16 -31 -13 -79 16 -29 17
-65 24 -65 12 0 -34 63 -69 106 -58 36 9 29 -5 -11 -22 -33 -13 -107 -16 -99
-3 2 4 -3 12 -12 19 -8 7 -13 19 -10 26 3 7 1 16 -4 19 -13 8 -13 -21 0 -45 9
-17 6 -20 -17 -25 -48 -11 -71 -23 -83 -45 -11 -21 -10 -22 22 -15 18 4 45 15
60 26 18 12 44 19 75 19 54 0 102 24 128 64 l16 25 38 -38 c57 -57 104 -76
191 -75 49 0 94 7 130 20 l55 20 50 -22 c94 -43 172 -58 300 -58 173 0 278 33
399 124 33 25 60 38 78 37 14 -1 24 -5 22 -9 -7 -11 72 -60 91 -56 28 5 -46
78 -81 79 l-29 0 25 10 c35 14 67 3 84 -29 9 -15 15 -22 16 -17 0 6 -7 21 -16
33 -13 19 -13 22 -1 22 23 0 42 -30 39 -61 -2 -16 1 -29 6 -29 13 0 23 26 16
43 -3 8 2 20 11 27 14 12 18 11 26 -1 5 -8 9 -22 9 -32 0 -25 16 -53 35 -61
10 -4 15 1 15 15 0 12 -4 17 -11 13 -8 -4 -9 1 -4 17 7 22 7 23 -11 9 -18 -14
-18 -14 -5 3 11 14 11 20 1 32 -8 10 -9 15 -2 15 6 0 25 -20 42 -45 47 -68 70
-80 126 -65 34 10 48 10 57 1 17 -17 31 -13 17 4 -7 8 -19 15 -26 15 -7 0 -11
6 -9 13 4 8 21 11 50 9 35 -3 55 2 89 22 51 30 69 32 86 11 7 -9 23 -13 36
-11 14 3 22 1 19 -5 -4 -5 -12 -6 -18 -2 -7 4 -6 0 2 -10 7 -9 20 -17 27 -17
38 0 -8 56 -56 68 l-35 9 37 8 c51 10 102 -9 138 -53 16 -20 30 -31 30 -25 0
7 -16 28 -35 47 -44 44 -93 55 -152 34 -40 -14 -42 -14 -33 3 12 21 13 49 3
49 -5 0 -9 -12 -9 -26 -2 -26 -26 -59 -56 -75 -16 -9 -16 -7 -2 27 19 46 15
58 -14 38 -17 -12 -23 -23 -19 -40 2 -13 0 -21 -4 -18 -5 3 -9 -2 -9 -10 0 -9
-8 -16 -17 -16 -13 0 -14 3 -5 12 7 7 11 23 11 37 -1 24 -2 24 -8 -4 -8 -37
-35 -45 -46 -13 -8 21 -8 21 -12 -8 -8 -63 -72 -87 -123 -46 -20 16 -20 18 -3
18 10 1 27 5 38 9 20 8 20 8 0 -8 -11 -9 -15 -17 -8 -17 17 0 43 11 43 19 0
12 -49 31 -80 31 -16 0 -32 5 -35 10 -3 6 4 10 18 10 26 0 55 26 43 38 -4 4
-12 -1 -17 -11 -11 -19 -50 -22 -80 -7 -14 8 -27 7 -47 -2 -23 -11 -32 -11
-61 4 -36 18 -75 16 -123 -8 -39 -20 -40 -18 -15 28 62 121 -9 270 -169 355
-63 33 -154 63 -188 62 -12 0 13 -10 54 -22 141 -42 241 -112 284 -199 73
-145 -14 -290 -218 -365 -60 -22 -269 -28 -365 -10 -42 8 -87 14 -101 15 -14
0 -42 8 -64 17 l-38 16 68 40 c38 22 77 48 87 56 15 15 19 15 37 -2 16 -15 40
-19 108 -21 l87 -3 -81 8 c-121 12 -139 30 -23 23 244 -12 473 100 468 230
l-2 33 -6 -35 -7 -35 -7 41 c-5 31 -18 51 -53 83 -59 55 -164 105 -202 97 -20
-5 -23 -4 -12 4 13 8 13 10 -2 10 -38 0 -14 -21 62 -56 44 -20 78 -39 76 -41
-2 -2 -28 3 -57 11 -60 18 -89 20 -89 6 0 -5 7 -7 15 -4 8 3 46 -3 84 -15 122
-37 121 -20 -3 41 -78 39 -63 45 19 9 96 -44 146 -98 158 -171 6 -42 -17 -85
-33 -60 -5 9 -5 17 1 21 6 3 -1 19 -16 37 -29 34 -94 85 -80 62 6 -9 4 -12 -6
-7 -91 39 -142 58 -152 54 -7 -2 8 -10 33 -17 24 -6 65 -22 90 -35 25 -12 52
-20 60 -18 13 4 13 3 1 -5 -11 -8 -25 -5 -50 7 -36 18 -83 34 -133 45 -25 6
-26 8 -16 43 23 85 -32 194 -127 253 -44 27 -135 33 -209 15z m167 -17 c47
-25 59 -71 36 -138 -9 -26 -14 -29 -20 -17 -14 24 -59 29 -124 12 -133 -35
-267 -116 -381 -229 -137 -138 -132 -213 12 -171 56 16 174 70 174 80 0 3 -20
-5 -46 -17 -39 -19 -46 -20 -54 -8 -14 23 -12 116 4 154 17 41 41 60 26 21
-15 -39 -12 -83 7 -116 23 -38 34 -37 58 8 15 29 36 46 85 70 36 18 83 35 105
39 l40 7 -30 -33 c-79 -85 -255 -193 -369 -225 -38 -11 -80 -16 -119 -13 -50
4 -64 9 -84 32 -82 96 81 328 334 472 43 24 82 44 88 44 5 0 -18 -15 -51 -34
-72 -38 -197 -126 -191 -133 3 -2 25 11 50 30 203 155 413 202 463 105 8 -16
18 -27 22 -24 9 9 -31 59 -59 73 -32 17 -105 16 -164 -2 -27 -8 -51 -12 -53
-10 -2 2 18 10 44 19 59 18 167 20 197 4z m148 -136 c17 -50 7 -139 -21 -196
-28 -54 -107 -149 -120 -141 -4 2 -27 -12 -51 -33 -91 -79 -209 -146 -308
-176 -68 -20 -167 -21 -206 -1 l-30 15 24 -20 c28 -24 15 -27 -19 -3 -42 28
-81 67 -97 96 -18 36 -15 39 17 20 17 -10 19 -12 5 -8 -13 4 -16 3 -10 -3 6
-6 45 -7 100 -2 87 8 150 26 237 71 22 11 37 15 33 9 -6 -9 -2 -9 14 -1 11 7
21 14 21 17 0 3 -6 2 -12 -2 -27 -15 9 14 72 58 89 62 193 175 231 250 26 52
30 70 27 115 l-5 54 44 -42 c23 -24 48 -58 54 -77z m-142 -31 c8 -14 4 -28
-20 -64 -40 -61 -51 -69 -102 -72 -81 -5 -168 -55 -207 -119 l-18 -28 -17 32
c-16 30 -17 65 -4 120 13 51 215 149 311 150 36 0 50 -4 57 -19z m-416 -163
c-21 -40 -23 -138 -4 -161 11 -15 9 -18 -15 -28 -42 -15 -115 -28 -131 -22
-22 9 -15 48 18 92 26 36 138 151 147 151 1 0 -5 -15 -15 -32z m672 1 c30 -11
77 -35 103 -53 29 -19 49 -27 49 -20 0 7 -5 10 -10 7 -6 -4 -7 -1 -2 7 5 8 4
11 -2 7 -6 -4 -16 0 -22 7 -19 23 4 28 24 5 10 -11 20 -38 21 -60 2 -36 -1
-42 -34 -64 -89 -58 -278 -95 -397 -78 -67 10 -68 10 -119 -25 -128 -88 -290
-142 -372 -124 -35 8 -32 9 31 9 122 2 279 72 419 186 l61 50 -40 -43 c-24
-25 -32 -38 -19 -32 35 18 154 151 176 198 26 52 46 56 133 23z"/>
<path d="M1410 940 c-153 -38 -378 -207 -430 -322 -11 -24 -20 -61 -20 -84 0
-47 -7 -59 -27 -43 -39 33 7 146 101 247 34 37 48 56 31 43 -114 -87 -195
-269 -135 -301 30 -16 40 -4 40 44 0 62 50 155 113 212 142 128 327 215 420
197 58 -11 52 -16 -117 -84 -89 -36 -235 -130 -281 -180 -32 -36 -14 -25 51
31 63 53 169 113 274 155 105 41 131 58 113 76 -15 15 -90 20 -133 9z"/>
<path d="M1373 539 c-18 -12 -33 -23 -33 -26 0 -3 12 2 26 12 47 30 37 8 -11
-25 -124 -85 -299 -144 -367 -123 -31 10 -29 10 28 10 54 0 172 29 161 39 -2
2 -23 -3 -47 -11 -23 -8 -70 -15 -104 -15 -75 0 -104 -14 -63 -29 16 -6 46
-11 68 -11 84 0 275 82 355 152 53 47 45 64 -13 27z"/>
<path d="M1811 746 c10 -9 109 -56 109 -51 0 5 -95 55 -106 55 -4 0 -5 -2 -3
-4z"/>
<path d="M2070 543 c-53 -71 -143 -115 -304 -148 -15 -3 -26 -9 -23 -12 11
-11 157 29 216 58 38 19 78 50 106 82 25 28 45 48 45 43 0 -21 -43 -75 -84
-104 -105 -76 -230 -105 -425 -100 -192 4 -189 -29 4 -48 134 -13 105 -25 -45
-19 -79 3 -141 3 -138 -1 13 -13 285 -17 293 -4 4 6 5 14 2 16 -4 4 -205 33
-234 34 -2 0 -3 5 -3 11 0 6 9 8 20 4 48 -15 265 -6 342 14 155 40 278 131
278 206 0 26 -13 17 -50 -32z"/>
<path d="M480 465 c0 -16 32 -65 42 -65 6 0 4 8 -6 19 -13 14 -14 21 -5 27 8
5 10 3 4 -6 -6 -9 -4 -11 5 -5 9 6 11 4 5 -5 -5 -8 -4 -11 3 -6 6 3 9 -1 7
-11 -1 -10 7 -26 19 -36 20 -17 19 -17 -22 -1 -27 10 -56 14 -80 10 -20 -3
-90 -7 -155 -8 -107 -3 -120 -1 -133 16 -7 11 -17 16 -21 12 -7 -7 0 -13 37
-36 22 -13 10 -19 -52 -26 -42 -5 -64 -2 -88 10 -43 21 -50 20 -21 -4 29 -25
104 -27 175 -5 35 11 53 12 62 4 8 -7 14 -7 19 1 3 6 10 8 15 5 5 -3 11 -1 15
5 3 5 13 10 21 10 12 0 11 -5 -5 -26 -11 -15 -18 -31 -14 -36 3 -6 12 4 19 21
10 23 19 31 38 31 23 0 25 -3 20 -28 -7 -36 18 -61 41 -42 19 16 19 34 -1 51
-14 12 -14 14 2 26 19 14 52 17 79 7 14 -6 13 -8 -6 -18 -12 -6 -25 -17 -27
-25 -3 -10 5 -7 23 7 24 19 35 21 84 15 31 -3 67 -14 80 -25 13 -10 28 -18 34
-18 6 0 -3 10 -20 23 -28 21 -29 24 -16 44 22 32 9 75 -20 71 -19 -3 -22 -9
-21 -45 1 -57 -14 -55 -62 9 -34 45 -74 74 -74 53z m174 -41 c7 -19 -11 -57
-25 -49 -15 10 -11 65 5 65 8 0 17 -7 20 -16z m-230 -115 c-3 -5 -12 -9 -20
-9 -14 0 -20 31 -7 44 9 9 34 -24 27 -35z"/>
<path d="M225 317 c-18 -43 -18 -47 -4 -47 15 0 69 56 69 72 0 7 -9 -2 -20
-19 -11 -18 -22 -33 -24 -33 -10 0 -14 30 -4 36 7 5 8 2 3 -7 -6 -11 -5 -12 6
-1 10 9 10 15 1 24 -9 9 -15 3 -27 -25z"/>
</g>
</svg>
